REM DIRINDEX 1\2,1\3
REM DIRNAME cjc052,folder01,folder02
TITLE ""
FILE "Disk2Track17.mp3" MP3
  TRACK 01 AUDIO
    TITLE "2:cjc052_0648"
    INDEX 01 00:00:00
  TRACK 02 AUDIO
    TITLE "2:cjc052_0649"
    INDEX 01 00:04:40
  TRACK 03 AUDIO
    TITLE "2:cjc052_0650"
    INDEX 01 00:16:69
  TRACK 04 AUDIO
    TITLE "2:cjc052_0651"
    INDEX 01 00:27:06
  TRACK 05 AUDIO
    TITLE "2:cjc052_0652"
    INDEX 01 00:38:59
  TRACK 06 AUDIO
    TITLE "0:"
    INDEX 01 00:57:05
